<svg xmlns="http://www.w3.org/2000/svg" width="16" height="16" viewBox="0 0 16 16" fill="none">
  <path d="M4.25 6.25C4.25 6.05109 4.32902 5.86032 4.46967 5.71967C4.61032 5.57902 4.80109 5.5 5 5.5H11C11.1989 5.5 11.3897 5.57902 11.5303 5.71967C11.671 5.86032 11.75 6.05109 11.75 6.25C11.75 6.44891 11.671 6.63968 11.5303 6.78033C11.3897 6.92098 11.1989 7 11 7H5C4.80109 7 4.61032 6.92098 4.46967 6.78033C4.32902 6.63968 4.25 6.44891 4.25 6.25ZM5 9.5H11C11.1989 9.5 11.3897 9.42098 11.5303 9.28033C11.671 9.13968 11.75 8.94891 11.75 8.75C11.75 8.55109 11.671 8.36032 11.5303 8.21967C11.3897 8.07902 11.1989 8 11 8H5C4.80109 8 4.61032 8.07902 4.46967 8.21967C4.32902 8.36032 4.25 8.55109 4.25 8.75C4.25 8.94891 4.32902 9.13968 4.46967 9.28033C4.61032 9.42098 4.80109 9.5 5 9.5ZM14.75 3.5V13C14.75 13.1279 14.7173 13.2536 14.655 13.3652C14.5927 13.4769 14.5029 13.5708 14.3942 13.638C14.2854 13.7052 14.1612 13.7435 14.0335 13.7492C13.9058 13.7549 13.7787 13.7278 13.6644 13.6706L12 12.8387L10.3356 13.6706C10.2314 13.7228 10.1165 13.7499 10 13.7499C9.88349 13.7499 9.76857 13.7228 9.66438 13.6706L8 12.8387L6.33563 13.6706C6.23143 13.7228 6.11651 13.7499 6 13.7499C5.88349 13.7499 5.76857 13.7228 5.66437 13.6706L4 12.8387L2.33562 13.6706C2.22129 13.7278 2.09422 13.7549 1.96649 13.7492C1.83876 13.7435 1.71462 13.7052 1.60584 13.638C1.49707 13.5708 1.40727 13.4769 1.345 13.3652C1.28272 13.2536 1.25001 13.1279 1.25 13V3.5C1.25 3.16848 1.3817 2.85054 1.61612 2.61612C1.85054 2.3817 2.16848 2.25 2.5 2.25H13.5C13.8315 2.25 14.1495 2.3817 14.3839 2.61612C14.6183 2.85054 14.75 3.16848 14.75 3.5ZM13.25 3.75H2.75V11.7863L3.66438 11.3294C3.76857 11.2772 3.88349 11.2501 4 11.2501C4.11651 11.2501 4.23143 11.2772 4.33563 11.3294L6 12.1613L7.66437 11.3294C7.76857 11.2772 7.88349 11.2501 8 11.2501C8.11651 11.2501 8.23143 11.2772 8.33562 11.3294L10 12.1613L11.6644 11.3294C11.7686 11.2772 11.8835 11.2501 12 11.2501C12.1165 11.2501 12.2314 11.2772 12.3356 11.3294L13.25 11.7863V3.75Z" fill="#9A9A9A"/>
</svg>
